#!OML:ASF F:\VICON\USERDATA\INSTALL\rory3\rory3.ASF
:FULLY-SPECIFIED
:DEGREES
54
root 1.0131648084885554 17.844551786293337 36.273340060774 -4.036770709510735 -1.4948449859350197 -6.091439816112823
lfemur -13.746357186981164 0.5559778431770064 -11.209736556571816
ltibia 59.214366325332485
lfoot -10.213943858950707 1.72834609706045
ltoes -11.907384780121546
rfemur -9.275421486717917 3.93662467141762 31.803904653471314
rtibia 31.661229253362297
rfoot -16.94469770259779 -12.192301435146005
rtoes -1.5754738805052741
lowerback 11.176480610221153 -0.0019326996504002436 3.1344852715480105
upperback 0.14207059321439092 1.1416646714436383 2.7680962803159854
thorax -6.2975576332631995 0.589514736306555 1.1992640644779995
lowerneck -17.157846789638732 -3.3256362150472274 -1.407569019931225
upperneck 21.540305025866253 -4.448961315807819 0.7183591537896815
head 9.671511160642533 -2.117842990128116 -0.07724128231634456
lclavicle -2.5098637241352036e-15 -2.736044115645124e-15
lhumerus -33.18501049855418 4.139907921252372 83.12722116769223
lradius 21.416975181590864
lwrist 11.141583043104268
lhand -30.098772386351722 17.615816908625376
lfingers nan
lthumb -3.040627769527982 47.96584771361898
rclavicle -2.6484282307905746e-15 -2.81912116927498e-15
rhumerus -29.373687508574754 -22.592530113922024 -72.89580711028657
rradius 30.433743791940927
rwrist 1.0930645029056842
rhand -17.59360983127877 22.364400335536146
rfingers nan
rthumb 8.554383467315317 -7.621143003375492
55
root 1.0457835173358907 17.834255089121232 36.97573695483093 -3.981098998257691 -0.8442296824443858 -6.477683336200057
lfemur -17.413726547640007 0.4336005411934214 -11.475276991768492
ltibia 58.73850872147035
lfoot -11.170656903881559 2.282619849822192
ltoes -13.051429029184742
rfemur -7.184586836652226 3.3904108310027183 32.09300814391362
rtibia 31.51632239417066
rfoot -16.296710747661226 -11.92838931445613
rtoes -2.797715298734431
lowerback 11.125216819776726 0.1054324929435896 3.6507498009174393
upperback 0.13819890519315026 1.4576725334155358 2.722076444177298
thorax -6.234032949100258 0.744282394702961 0.717287565576465
lowerneck -17.09212989574901 -3.4154034115937826 -1.3668541788519502
upperneck 21.524994217758895 -4.619268779491713 0.8029929126828648
head 9.675728809805296 -2.1773381661179543 -0.08223927234557246
lclavicle -2.5033971602513032e-15 -2.733273944774307e-15
lhumerus -33.857923345045364 5.098256755274071 83.12772738954364
lradius 22.24540895289984
lwrist 11.395012409892509
lhand -30.18784590419321 17.712992905892172
lfingers nan
lthumb -3.22896969729195 47.87047549842501
rclavicle -2.6416116970218975e-15 -2.8170342578228827e-15
rhumerus -28.05923980140041 -21.292778677759895 -72.81306837098259
rradius 30.92900821912395
rwrist 2.436104051575337
rhand -17.608889029767017 22.769903565166686
rfingers nan
rthumb 8.528929436226333 -7.0801254043929
56
root 1.0823841883089478 17.832707689392244 37.57112273936558 -4.0402903554302805 -0.3086178531112851 -6.485718437330723
lfemur -20.261411193031122 -0.009332533957196354 -12.363543927390744
ltibia 56.442925409721994
lfoot -10.782742217365186 2.453334532189468
ltoes -15.506276260453742
rfemur -4.9540242485610335 3.1322908266531395 32.09178023501373
rtibia 31.349693875079012
rfoot -15.274264282664522 -11.684677892994129
rtoes -3.4866062749420887
lowerback 11.102853998261006 0.24651684180232897 3.9195836494325116
upperback 0.06729838770583234 1.7820431327488717 2.586730789448587
thorax -6.196839528387753 0.8960089950822608 0.22400916598060183
lowerneck -16.97254273554376 -3.5120000670407987 -1.3668793406603832
upperneck 21.562258145567565 -4.797970994519569 0.9060990974955213
head 9.694616018853022 -2.2400087831984696 -0.07745324433618098
lclavicle -2.4921968198871187e-15 -2.7285463400464998e-15
lhumerus -34.23735646969293 5.865514804286438 83.09250066766795
lradius 23.12650829410765
lwrist 11.632502013349203
lhand -30.264592911808663 17.590985917251224
lfingers nan
lthumb -3.272751371131342 47.875391321651655
rclavicle -2.6314547223602633e-15 -2.815682287926264e-15
rhumerus -27.040720508223117 -20.0614238355493 -72.71063471859637
rradius 31.54755534458727
rwrist 4.375458675775143
rhand -17.709952281483424 23.215025015118794
rfingers nan
rthumb 8.446304366181588 -6.5372930898982275
57
root 1.1139439141347953 17.84354930421342 38.4544948000738 -3.9345003833840964 0.08141708000880304 -6.754227672468421
lfemur -21.823464226413385 -0.5517290839207549 -13.005346787420525
ltibia 52.45470621158758
lfoot -10.910859956880046 1.9022095838115507
ltoes -16.630288385816627
rfemur -3.3968679901242105 3.247498787976263 32.30863642880545
rtibia 31.529146206726303
rfoot -13.837690079439717 -11.341239456814465
rtoes -3.5362215167973723
lowerback 11.055897834398667 0.390872560489659 4.401637938666955
upperback -0.01352712381052791 2.0728534281323783 2.482005270166348
thorax -6.174566305693975 1.0125050646618017 -0.27257981686154964
lowerneck -16.810718451959946 -3.595990040094094 -1.3756142682709496
upperneck 21.64895620799847 -4.957552401067668 1.0038939379087979
head 9.720522410583778 -2.2965226552601528 -0.06699995261644673
lclavicle -2.484234460414269e-15 -2.7256787880275077e-15
lhumerus -34.39778998670354 6.255823964481751 83.03039519780617
lradius 24.002603793679782
lwrist 11.72576145902164
lhand -30.093871465627746 17.794943288248085
lfingers nan
lthumb -3.185953211700538 47.98172231376415
rclavicle -2.6209308050004745e-15 -2.814068875390849e-15
rhumerus -26.454691957986384 -19.00313027751676 -72.70116155926897
rradius 32.19736124276872
rwrist 5.45882400579965
rhand -17.81460057141671 23.393977084974477
rfingers nan
rthumb 8.386270284007997 -6.317318675686348
